<?xml version="1.0" encoding="UTF-8"?>
<!DOCTYPE svg  PUBLIC '-//W3C//DTD SVG 1.1//EN'  'http://www.w3.org/Graphics/SVG/1.1/DTD/svg11.dtd'>
<svg enable-background="new 0 0 74 74" version="1.1" viewBox="0 0 74 74" xml:space="preserve" xmlns="http://www.w3.org/2000/svg">
<path d="m73.515 40.83v-7.79l-7.189-2.12-2.11-6.37 4.6-5.95-4.569-6.3-7.07 2.51-5.42-3.95 0.21-7.54-7.412-2.32-4.24 6.21h-6.7l-4.24-6.21-7.41 2.46 0.21 7.47-5.42 3.92-7.07-2.53-4.57 6.3 4.6 5.95-2.07 6.37-7.16 2.12v7.791l7.16 2.119 2.01 6.37-4.57 5.95 4.58 6.3 7.08-2.521 5.42 3.931-0.21 7.479 7.41 2.2 4.24-6.44h6.7l4.239 6.44 7.41-2.229-0.209-7.461 5.42-3.92 7.08 2.531 4.59-6.291-4.561-5.949 2.02-6.371 7.221-2.159zm-32.43 19.13l-0.93-4.859c-0.211-1.08-1.25-1.791-2.33-1.58l-1.601 0.31c-1.08 0.21-1.79 1.25-1.58 2.33l1.08 4.989c-2.46-0.719-4.06-2.989-4.06-5.68 0-2.42 1.85-4.49 3.85-5.41v-26.82c-2-0.91-3.87-3-3.87-5.43 0-1.81 0.53-3.42 1.81-4.51l0.91 4.86c0.21 1.08 1.24 1.79 2.32 1.58l1.6-0.31c1.08-0.21 1.78-1.25 1.58-2.33l-0.949-4.99c2.459 0.72 4.199 2.99 4.199 5.68 0 2.41-1.59 4.49-3.59 5.41v26.821c2 0.91 3.61 3 3.61 5.43-0.01 1.809-0.77 3.419-2.049 4.509z"/>
</svg>
