<svg xmlns="http://www.w3.org/2000/svg" width="162px" viewBox="0 0 162 23">
<path fill="#685B27" d="M159.9,21.8H2.3c-0.6,0-1.1-0.5-1.1-1.1C1.2,20.1,1.7,19.6,2.3,19.6H159.9c0.6,0,1.1,0.5,1.1,1.101
	C161,21.3,160.5,21.8,159.9,21.8z"/>
<path fill="#685B27" d="M159.9,12.6H30c-0.6,0-1.1-0.5-1.1-1.1s0.5-1.1,1.1-1.1h129.9c0.6,0,1.1,0.5,1.1,1.1S160.5,12.6,159.9,12.6z"/>
<path fill="#685B27" d="M159.9,3.4h-110c-0.6,0-1.1-0.5-1.1-1.1c0-0.6,0.5-1.1,1.1-1.1h110c0.6,0,1.1,0.5,1.1,1.1C161,2.9,160.5,3.4,159.9,3.4z"/>
</svg>
