<svg xmlns="http://www.w3.org/2000/svg" viewBox="0 0 415 74"><path fill="#685B27" class="cog" d="M242.3 40.6v-7.8l-7.2-2.1 -2.1-6.4 4.6-6 -4.6-6.3 -7.1 2.5 -5.4-4 0.2-7.5 -7.4-2.3L209.1 7h-6.7l-4.2-6.2 -7.4 2.5 0.2 7.5 -5.4 3.9 -7.1-2.5 -4.6 6.3 4.6 5.9 -2.1 6.4 -7.2 2.1v7.8l7.2 2.1 2 6.4 -4.6 5.9 4.6 6.3 7.1-2.5 5.4 3.9 -0.2 7.5 7.4 2.2L202.4 66h6.7l4.2 6.4 7.4-2.2 -0.2-7.5 5.4-3.9 7.1 2.5 4.6-6.3 -4.6-5.9 2-6.4L242.3 40.6zM209.8 59.7l-0.9-4.9c-0.2-1.1-1.2-1.8-2.3-1.6l-1.6 0.3c-1.1 0.2-1.8 1.2-1.6 2.3l1.1 5c-2.5-0.7-4.1-3-4.1-5.7 0-2.4 1.9-4.5 3.9-5.4V23v0c-2-0.9-3.9-3-3.9-5.4 0-1.8 0.5-3.4 1.8-4.5l0.9 4.9c0.2 1.1 1.2 1.8 2.3 1.6l1.6-0.3c1.1-0.2 1.8-1.2 1.6-2.3l-1-5c2.5 0.7 4.2 3 4.2 5.7 0 2.4-1.6 4.5-3.6 5.4v26.8 0c2 0.9 3.6 3 3.6 5.4C211.9 57 211.1 58.7 209.8 59.7z"/><path fill="#685B27" d="M159.4 52.8H1.8c-0.6 0-1.1-0.5-1.1-1.1s0.5-1.1 1.1-1.1h157.6c0.6 0 1.1 0.5 1.1 1.1S160 52.8 159.4 52.8z"/><path fill="#685B27" d="M159.4 43.6H29.5c-0.6 0-1.1-0.5-1.1-1.1s0.5-1.1 1.1-1.1h129.9c0.6 0 1.1 0.5 1.1 1.1S160 43.6 159.4 43.6z"/><path fill="#685B27" d="M159.4 34.4H49.4c-0.6 0-1.1-0.5-1.1-1.1s0.5-1.1 1.1-1.1h110c0.6 0 1.1 0.5 1.1 1.1S160 34.4 159.4 34.4z"/><path fill="#685B27" d="M412.8 52.8h-157.6c-0.6 0-1.1-0.5-1.1-1.1s0.5-1.1 1.1-1.1h157.6c0.6 0 1.1 0.5 1.1 1.1S413.4 52.8 412.8 52.8z"/><path fill="#685B27" d="M385.1 43.6H255.2c-0.6 0-1.1-0.5-1.1-1.1s0.5-1.1 1.1-1.1h129.9c0.6 0 1.1 0.5 1.1 1.1S385.7 43.6 385.1 43.6z"/><path fill="#685B27" d="M365.2 34.4H255.2c-0.6 0-1.1-0.5-1.1-1.1s0.5-1.1 1.1-1.1H365.2c0.6 0 1.1 0.5 1.1 1.1S365.8 34.4 365.2 34.4z"/></svg>