<?xml version="1.0" encoding="utf-8"?>
<!-- Generator: Adobe Illustrator 16.0.0, SVG Export Plug-In . SVG Version: 6.00 Build 0)  -->
<!DOCTYPE svg PUBLIC "-//W3C//DTD SVG 1.1//EN" "http://www.w3.org/Graphics/SVG/1.1/DTD/svg11.dtd">
<svg version="1.1" id="Layer_1" xmlns="http://www.w3.org/2000/svg" xmlns:xlink="http://www.w3.org/1999/xlink" x="0px" y="0px"
	 width="162px" height="23px" viewBox="0 0 162 23" enable-background="new 0 0 162 23" xml:space="preserve">
<path d="M159.8,21.8H2.2C1.6,21.8,1.1,21.3,1.1,20.7C1.1,20.1,1.6,19.6,2.2,19.6h157.6c0.601,0,1.101,0.5,1.101,1.101
	C160.9,21.3,160.4,21.8,159.8,21.8z"/>
<path d="M132.1,12.6H2.2C1.6,12.6,1.1,12.1,1.1,11.5s0.5-1.1,1.101-1.1H132.1c0.601,0,1.101,0.5,1.101,1.1S132.7,12.6,132.1,12.6z"
	/>
<path d="M112.2,3.4H2.2C1.6,3.4,1.1,2.9,1.1,2.3c0-0.6,0.5-1.1,1.101-1.1h110c0.6,0,1.1,0.5,1.1,1.1C113.3,2.9,112.8,3.4,112.2,3.4z
	"/>
</svg>
